<svg width="307" height="116" viewBox="0 0 307 116" fill="none" xmlns="http://www.w3.org/2000/svg">
<path d="M0 8C0 3.58172 3.58172 0 8 0H56C60.4183 0 64 3.58172 64 8V56C64 60.4183 60.4183 64 56 64H8C3.58172 64 0 60.4183 0 56V8Z" fill="#4682B4"/>
<path d="M27.12 40V25.4H29.08V40H27.12ZM28.68 40V38.24H35.76V40H28.68ZM28.68 33.46V31.7H35.14V33.46H28.68ZM28.68 27.16V25.4H35.56V27.16H28.68Z" fill="black"/>
<path d="M81 8C81 3.58172 84.5817 0 89 0H137C141.418 0 145 3.58172 145 8V56C145 60.4183 141.418 64 137 64H89C84.5817 64 81 60.4183 81 56V8Z" fill="#4682B4"/>
<path d="M106.56 39L111.82 24.4H115.14L120.56 39H118.54L113.64 25.68L114.6 26.16H112.24L113.26 25.68L108.52 39H106.56ZM109.7 34.64L110.36 32.88H116.66L117.32 34.64H109.7Z" fill="black"/>
<path d="M162 8C162 3.58172 165.582 0 170 0H218C222.418 0 226 3.58172 226 8V56C226 60.4183 222.418 64 218 64H170C165.582 64 162 60.4183 162 56V8Z" fill="#4682B4"/>
<path d="M193.86 39.36C192.647 39.36 191.613 39.16 190.76 38.76C189.907 38.36 189.253 37.8067 188.8 37.1C188.347 36.3933 188.12 35.5933 188.12 34.7H190.08C190.08 35.14 190.193 35.58 190.42 36.02C190.66 36.46 191.053 36.8267 191.6 37.12C192.16 37.4133 192.913 37.56 193.86 37.56C194.74 37.56 195.46 37.4333 196.02 37.18C196.58 36.9133 196.993 36.5733 197.26 36.16C197.527 35.7333 197.66 35.2733 197.66 34.78C197.66 34.18 197.4 33.6867 196.88 33.3C196.36 32.9 195.6 32.6533 194.6 32.56L192.98 32.42C191.687 32.3133 190.653 31.9133 189.88 31.22C189.107 30.5267 188.72 29.6133 188.72 28.48C188.72 27.5867 188.933 26.8067 189.36 26.14C189.8 25.4733 190.407 24.9533 191.18 24.58C191.953 24.1933 192.853 24 193.88 24C194.893 24 195.787 24.1867 196.56 24.56C197.333 24.9333 197.933 25.46 198.36 26.14C198.8 26.8067 199.02 27.6067 199.02 28.54H197.06C197.06 28.0733 196.947 27.6333 196.72 27.22C196.507 26.8067 196.167 26.4667 195.7 26.2C195.233 25.9333 194.627 25.8 193.88 25.8C193.16 25.8 192.56 25.9267 192.08 26.18C191.613 26.4333 191.26 26.7667 191.02 27.18C190.793 27.58 190.68 28.0133 190.68 28.48C190.68 29.0133 190.887 29.4867 191.3 29.9C191.713 30.3133 192.327 30.5533 193.14 30.62L194.76 30.76C195.76 30.84 196.62 31.0533 197.34 31.4C198.073 31.7333 198.633 32.1867 199.02 32.76C199.42 33.32 199.62 33.9933 199.62 34.78C199.62 35.6733 199.38 36.4667 198.9 37.16C198.42 37.8533 197.747 38.3933 196.88 38.78C196.013 39.1667 195.007 39.36 193.86 39.36Z" fill="black"/>
<path d="M243 8C243 3.58172 246.582 0 251 0H299C303.418 0 307 3.58172 307 8V56C307 60.4183 303.418 64 299 64H251C246.582 64 243 60.4183 243 56V8Z" fill="#4682B4"/>
<path d="M272.96 33.32L268.32 24.4H270.36L274.28 32.04L273.52 31.82H275.88L275.08 32.04L278.76 24.4H280.68L276.32 33.32H272.96ZM273.68 39V32.92H275.6V39H273.68Z" fill="black"/>
<path d="M84.4 103L74.92 89.36H70.96L82.76 73.8H91.32L80.76 87.72V84.88L93.36 103H84.4ZM64.96 103V73.8H72.4V103H64.96ZM112.859 103V96.52H111.659V89.6C111.659 88.5867 111.419 87.84 110.939 87.36C110.486 86.8533 109.726 86.6 108.659 86.6C108.153 86.6 107.406 86.6133 106.419 86.64C105.433 86.6667 104.393 86.7067 103.299 86.76C102.206 86.8133 101.206 86.8667 100.299 86.92V80.84C100.939 80.7867 101.699 80.7333 102.579 80.68C103.459 80.6267 104.366 80.5867 105.299 80.56C106.259 80.5333 107.139 80.52 107.939 80.52C110.206 80.52 112.126 80.8533 113.699 81.52C115.299 82.1867 116.513 83.1867 117.339 84.52C118.193 85.8533 118.619 87.5467 118.619 89.6V103H112.859ZM105.859 103.56C104.313 103.56 102.939 103.28 101.739 102.72C100.539 102.16 99.5927 101.36 98.8994 100.32C98.2327 99.2533 97.8994 97.9867 97.8994 96.52C97.8994 94.8667 98.3394 93.5333 99.2194 92.52C100.099 91.48 101.313 90.72 102.859 90.24C104.406 89.76 106.179 89.52 108.179 89.52H112.459V93.28H108.179C107.193 93.28 106.433 93.5333 105.899 94.04C105.366 94.52 105.099 95.1733 105.099 96C105.099 96.8 105.366 97.4533 105.899 97.96C106.433 98.44 107.193 98.68 108.179 98.68C108.819 98.68 109.379 98.5733 109.859 98.36C110.366 98.12 110.779 97.72 111.099 97.16C111.419 96.6 111.606 95.8267 111.659 94.84L113.339 96.44C113.206 97.96 112.833 99.2533 112.219 100.32C111.633 101.36 110.806 102.16 109.739 102.72C108.699 103.28 107.406 103.56 105.859 103.56ZM127.484 103V80.92H133.244V90.44H132.924C132.924 88.1467 133.204 86.2533 133.764 84.76C134.35 83.24 135.204 82.1067 136.324 81.36C137.444 80.5867 138.817 80.2 140.444 80.2H140.764C142.417 80.2 143.79 80.5867 144.884 81.36C146.004 82.1067 146.844 83.24 147.404 84.76C147.99 86.2533 148.284 88.1467 148.284 90.44H146.604C146.604 88.1467 146.884 86.2533 147.444 84.76C148.03 83.24 148.884 82.1067 150.004 81.36C151.124 80.5867 152.497 80.2 154.124 80.2H154.444C156.097 80.2 157.484 80.5867 158.604 81.36C159.75 82.1067 160.617 83.24 161.204 84.76C161.817 86.2533 162.124 88.1467 162.124 90.44V103H154.844V90.24C154.844 89.2267 154.564 88.3867 154.004 87.72C153.47 87.0267 152.697 86.68 151.684 86.68C150.67 86.68 149.87 87.0267 149.284 87.72C148.724 88.3867 148.444 89.2533 148.444 90.32V103H141.164V90.24C141.164 89.2267 140.884 88.3867 140.324 87.72C139.79 87.0267 139.017 86.68 138.004 86.68C136.99 86.68 136.19 87.0267 135.604 87.72C135.044 88.3867 134.764 89.2533 134.764 90.32V103H127.484ZM185.255 103.72C183.442 103.72 181.855 103.347 180.495 102.6C179.162 101.853 178.108 100.76 177.335 99.32C176.588 97.88 176.188 96.12 176.135 94.04H176.775V103H171.015V73.8H178.295V88.84L176.695 90.44C176.775 88.28 177.188 86.44 177.935 84.92C178.682 83.4 179.708 82.2533 181.015 81.48C182.348 80.68 183.882 80.28 185.615 80.28C187.108 80.28 188.455 80.56 189.655 81.12C190.855 81.6533 191.868 82.4267 192.695 83.44C193.548 84.4267 194.202 85.6 194.655 86.96C195.108 88.32 195.335 89.8133 195.335 91.44V92.4C195.335 94.0267 195.108 95.5333 194.655 96.92C194.202 98.28 193.535 99.48 192.655 100.52C191.775 101.533 190.708 102.32 189.455 102.88C188.228 103.44 186.828 103.72 185.255 103.72ZM183.175 97.72C184.135 97.72 184.975 97.48 185.695 97C186.442 96.4933 187.015 95.8 187.415 94.92C187.842 94.04 188.055 93.04 188.055 91.92C188.055 90.7733 187.842 89.7867 187.415 88.96C187.015 88.1067 186.455 87.4533 185.735 87C185.015 86.52 184.162 86.28 183.175 86.28C182.295 86.28 181.468 86.48 180.695 86.88C179.948 87.28 179.335 87.8667 178.855 88.64C178.375 89.4133 178.135 90.3467 178.135 91.44V92.8C178.135 93.84 178.388 94.7333 178.895 95.48C179.402 96.2 180.042 96.76 180.815 97.16C181.588 97.5333 182.375 97.72 183.175 97.72ZM216.695 103V96.52H215.495V89.6C215.495 88.5867 215.255 87.84 214.775 87.36C214.322 86.8533 213.562 86.6 212.495 86.6C211.989 86.6 211.242 86.6133 210.255 86.64C209.269 86.6667 208.229 86.7067 207.135 86.76C206.042 86.8133 205.042 86.8667 204.135 86.92V80.84C204.775 80.7867 205.535 80.7333 206.415 80.68C207.295 80.6267 208.202 80.5867 209.135 80.56C210.095 80.5333 210.975 80.52 211.775 80.52C214.042 80.52 215.962 80.8533 217.535 81.52C219.135 82.1867 220.349 83.1867 221.175 84.52C222.029 85.8533 222.455 87.5467 222.455 89.6V103H216.695ZM209.695 103.56C208.149 103.56 206.775 103.28 205.575 102.72C204.375 102.16 203.429 101.36 202.735 100.32C202.069 99.2533 201.735 97.9867 201.735 96.52C201.735 94.8667 202.175 93.5333 203.055 92.52C203.935 91.48 205.149 90.72 206.695 90.24C208.242 89.76 210.015 89.52 212.015 89.52H216.295V93.28H212.015C211.029 93.28 210.269 93.5333 209.735 94.04C209.202 94.52 208.935 95.1733 208.935 96C208.935 96.8 209.202 97.4533 209.735 97.96C210.269 98.44 211.029 98.68 212.015 98.68C212.655 98.68 213.215 98.5733 213.695 98.36C214.202 98.12 214.615 97.72 214.935 97.16C215.255 96.6 215.442 95.8267 215.495 94.84L217.175 96.44C217.042 97.96 216.669 99.2533 216.055 100.32C215.469 101.36 214.642 102.16 213.575 102.72C212.535 103.28 211.242 103.56 209.695 103.56ZM231.32 103V80.92H237.08V90.4H236.76C236.76 88.1067 237.053 86.2133 237.64 84.72C238.226 83.2 239.093 82.0667 240.24 81.32C241.413 80.5733 242.826 80.2 244.48 80.2H244.8C247.306 80.2 249.24 81.04 250.6 82.72C251.986 84.3733 252.68 86.92 252.68 90.36V103H245.4V90.16C245.4 89.1467 245.093 88.32 244.48 87.68C243.893 87.0133 243.08 86.68 242.04 86.68C241 86.68 240.16 87.0133 239.52 87.68C238.906 88.32 238.6 89.1733 238.6 90.24V103H231.32Z" fill="black"/>
</svg>
